<?xml version="1.0" encoding="UTF-8"?><svg id="Layer_1" xmlns="http://www.w3.org/2000/svg" viewBox="0 0 314.39 204.36"><defs><style>.cls-1{fill:#ea1b75;}.cls-2{fill:#fff;}.cls-3{fill:#61c4ba;}</style></defs><polygon class="cls-2" points="179.77 52.98 196.82 52.98 196.82 51.56 178.22 51.56 178.22 73.42 196.98 73.42 196.98 72.01 179.77 72.01 179.77 52.98"/><rect class="cls-2" x="184.43" y="61.78" width="7.51" height="1.42"/><path class="cls-2" d="M121.4,51.28c-6.6,0-11.96,4.92-11.96,10.99s5.35,10.99,11.96,10.99,11.96-4.92,11.96-10.99-5.35-10.99-11.96-10.99ZM121.4,71.8c-5.78,0-10.47-4.26-10.47-9.51s4.69-9.51,10.47-9.51,10.47,4.26,10.47,9.51-4.69,9.51-10.47,9.51Z"/><path class="cls-2" d="M98.64,57.67v-.06c0-3.61-3.06-6.14-7.72-6.14h-11.16v21.61h1.61v-20.13h9.46c3.92,0,6.21,1.82,6.21,4.72v.06c0,3.12-2.69,4.55-6.3,4.55h-1.43l8.1,10.79h2.04l-7.13-9.62c3.64-.49,6.33-2.17,6.33-5.79Z"/><path class="cls-2" d="M225.85,57.67v-.06c0-3.61-3.06-6.14-7.72-6.14h-11.16v21.61h1.61v-20.13h9.46c3.92,0,6.21,1.82,6.21,4.72v.06c0,3.12-2.69,4.55-6.3,4.55h-1.43l8.1,10.79h2.04l-7.13-9.62c3.64-.49,6.33-2.17,6.33-5.79Z"/><polygon class="cls-2" points="155.83 71.52 145.54 51.58 143.36 51.58 154.93 73.41 156.65 73.41 168.22 51.58 166.16 51.58 155.83 71.52"/><path class="cls-2" d="M85.75,131.5v2.18h-12.94v7.24h11.58v2.18h-11.58v7.43h13.09v2.18h-15.49v-21.21h15.34Z"/><path class="cls-2" d="M108.3,152.72h-2.85l-6.79-9.12-6.79,9.12h-2.76l8.15-10.82-7.85-10.4h2.82l6.52,8.67,6.46-8.67h2.79l-7.85,10.37,8.15,10.85Z"/><path class="cls-2" d="M128.57,138.26c0,2.2-.79,3.91-2.38,5.14-1.59,1.22-3.57,1.83-5.96,1.83h-5.15v7.49h-2.39v-21.21h7.94c2.4,0,4.33.61,5.77,1.82,1.44,1.21,2.17,2.86,2.17,4.94ZM126.15,138.35c0-1.49-.51-2.64-1.53-3.44-1.02-.8-2.41-1.2-4.17-1.2h-5.36v9.34h5.24c1.76,0,3.17-.43,4.23-1.29,1.06-.86,1.59-2,1.59-3.41Z"/><path class="cls-2" d="M132.94,152.72v-21.21h2.39v19h11.94v2.21h-14.34Z"/><path class="cls-2" d="M168.15,134.35c2.02,2.14,3.03,4.72,3.03,7.73s-1.02,5.6-3.06,7.76c-2.04,2.16-4.64,3.24-7.79,3.24s-5.74-1.07-7.76-3.21c-2.02-2.14-3.03-4.72-3.03-7.73s1.02-5.6,3.06-7.76c2.04-2.16,4.64-3.24,7.79-3.24s5.74,1.07,7.76,3.21ZM166.35,148.34c1.57-1.69,2.35-3.75,2.35-6.2s-.79-4.52-2.38-6.23c-1.59-1.71-3.58-2.56-5.99-2.56s-4.39.84-5.96,2.53c-1.57,1.69-2.35,3.75-2.35,6.2s.79,4.52,2.38,6.23c1.59,1.71,3.58,2.56,5.99,2.56s4.39-.84,5.96-2.53Z"/><path class="cls-2" d="M193.79,152.72h-2.94l-6.15-8.24h-6.06v8.24h-2.39v-21.21h9.12c2.32,0,4.18.58,5.58,1.73,1.39,1.15,2.09,2.69,2.09,4.61,0,1.72-.53,3.1-1.58,4.15-1.05,1.05-2.44,1.74-4.18,2.06l6.52,8.67ZM190.61,137.93c0-1.31-.48-2.34-1.42-3.09-.95-.75-2.28-1.12-4-1.12h-6.55v8.61h6.52c1.62,0,2.93-.39,3.94-1.18,1.01-.79,1.52-1.86,1.52-3.21Z"/><path class="cls-2" d="M213.49,131.5v2.18h-12.94v7.24h11.58v2.18h-11.58v7.43h13.09v2.18h-15.49v-21.21h15.34Z"/><path class="cls-2" d="M236.01,152.72h-2.94l-6.15-8.24h-6.06v8.24h-2.39v-21.21h9.12c2.32,0,4.18.58,5.58,1.73,1.39,1.15,2.09,2.69,2.09,4.61,0,1.72-.53,3.1-1.58,4.15-1.05,1.05-2.44,1.74-4.18,2.06l6.52,8.67ZM232.83,137.93c0-1.31-.48-2.34-1.42-3.09-.95-.75-2.28-1.12-4-1.12h-6.55v8.61h6.52c1.62,0,2.93-.39,3.94-1.18,1.01-.79,1.52-1.86,1.52-3.21Z"/><path class="cls-3" d="M234.78,108.33c-.55,0-1-.45-1-1,0-8.76-7.13-15.89-15.89-15.89H88.98c-8.76,0-15.89,7.13-15.89,15.89,0,.55-.45,1-1,1s-1-.45-1-1c0-9.87,8.03-17.89,17.89-17.89h128.91c9.87,0,17.89,8.03,17.89,17.89,0,.55-.45,1-1,1Z"/><path class="cls-3" d="M104.81,95.81c-1.78,0-3.45.51-4.86,1.38.61-.11,1.23-.18,1.86-.18,5.69,0,10.32,4.63,10.32,10.32,0,1.71-.41,3.34-1.16,4.78,1.93-1.71,3.16-4.2,3.16-6.98,0-5.15-4.17-9.32-9.32-9.32Z"/><path class="cls-3" d="M106.3,114.32c2.35-1.5,3.83-4.08,3.83-6.99,0-4.59-3.73-8.32-8.32-8.32-2.02,0-3.88.73-5.32,1.93-.64,1.26-1,2.68-1,4.19,0,5.15,4.17,9.32,9.32,9.32.51,0,1.01-.05,1.49-.13Z"/><path class="cls-3" d="M147.27,109.68c.75-1.34,1.18-2.89,1.18-4.55,0-5.15-4.17-9.32-9.32-9.32-1.8,0-3.47.52-4.9,1.4.64-.13,1.31-.2,1.99-.2,4.88,0,9.14,3.47,10.11,8.24.11.54-.24,1.07-.78,1.18-.54.11-1.07-.24-1.18-.78-.79-3.85-4.22-6.64-8.15-6.64-2.1,0-4.02.79-5.49,2.08-.59,1.22-.93,2.59-.93,4.04,0,3.99,2.51,7.4,6.04,8.73l11.43-4.18Z"/><path class="cls-3" d="M175.32,114.22c2.28-1.55,3.64-4.13,3.64-6.88,0-4.59-3.73-8.32-8.32-8.32-2.08,0-3.98.77-5.44,2.04-.6,1.24-.95,2.62-.95,4.09,0,5.15,4.17,9.32,9.32,9.32.57,0,1.13-.06,1.67-.16.03-.02.05-.06.08-.08Z"/><path class="cls-3" d="M173.58,95.81c-1.79,0-3.46.52-4.89,1.39.63-.12,1.28-.19,1.95-.19,5.69,0,10.32,4.63,10.32,10.32,0,1.66-.41,3.27-1.14,4.7,1.88-1.71,3.08-4.16,3.08-6.91,0-5.15-4.17-9.32-9.32-9.32Z"/><path class="cls-3" d="M216.02,109.99c.86-1.41,1.36-3.08,1.36-4.86,0-5.15-4.17-9.32-9.32-9.32-1.78,0-3.45.51-4.86,1.38.61-.11,1.23-.18,1.86-.18,5.69,0,10.32,4.63,10.32,10.32,0,.55-.45,1-1,1s-1-.45-1-1c0-4.59-3.73-8.32-8.32-8.32-2.02,0-3.88.73-5.32,1.93-.64,1.26-1,2.68-1,4.19,0,3.96,2.47,7.34,5.94,8.69l11.34-3.84Z"/><circle class="cls-1" cx="57.6" cy="117.56" r="2.03"/><circle class="cls-1" cx="147.27" cy="116.25" r="2.03"/><circle class="cls-1" cx="252.58" cy="110.04" r="2.03"/><circle class="cls-1" cx="265.44" cy="116.66" r="2.03"/><circle class="cls-1" cx="256.65" cy="124.39" r="2.03"/><circle class="cls-1" cx="157.82" cy="120.73" r="2.03"/><circle class="cls-1" cx="78.16" cy="122.35" r="2.03"/><circle class="cls-1" cx="213.64" cy="120.73" r="2.03"/><circle class="cls-1" cx="228.28" cy="118.69" r="2.03"/><circle class="cls-1" cx="118.58" cy="111.61" r="2.03"/><circle class="cls-1" cx="190.61" cy="114.62" r="2.03"/><circle class="cls-1" cx="153.86" cy="103.01" r="2.03"/><circle class="cls-1" cx="48.96" cy="120.36" r="2.03"/><circle class="cls-1" cx="50.41" cy="109.58" r="2.03"/><path class="cls-3" d="M61.46,112.55c-.55,0-1-.45-1-1v-8.27c0-.48.34-.9.82-.98l4.83-.89c.55-2.11,1.39-4.12,2.5-6.01l-2.79-4.05c-.27-.4-.23-.93.12-1.27l5.85-5.85c.34-.34.88-.39,1.27-.12l4.58,3.16c.45.31.57.94.26,1.39-.31.45-.94.57-1.39.25l-3.89-2.69-4.67,4.67,2.68,3.89c.23.33.24.76.02,1.1-1.28,2.05-2.2,4.27-2.74,6.61-.09.39-.4.69-.79.76l-4.64.85v7.44c0,.55-.45,1-1,1Z"/><path class="cls-3" d="M77.06,89.09c-.33,0-.66-.17-.85-.47-.29-.47-.15-1.08.32-1.38,2.05-1.28,4.26-2.23,6.58-2.84l.89-4.83c.09-.47.5-.82.98-.82h8.27c.48,0,.9.34.98.82l1,5.46c.1.54-.26,1.06-.8,1.16-.54.11-1.06-.26-1.16-.8l-.85-4.64h-6.61l-.85,4.64c-.07.39-.37.7-.76.79-2.34.54-4.56,1.46-6.61,2.74-.17.1-.35.15-.53.15Z"/><path class="cls-3" d="M246.12,112.55c-.55,0-1-.45-1-1v-7.44l-4.64-.85c-.39-.07-.7-.37-.79-.76-.54-2.33-1.46-4.56-2.74-6.61-.21-.34-.2-.77.02-1.1l2.69-3.89-4.67-4.67-3.89,2.69c-.46.31-1.08.2-1.39-.25-.31-.46-.2-1.08.26-1.39l4.58-3.16c.4-.27.94-.22,1.27.12l5.85,5.85c.34.34.39.88.12,1.27l-2.79,4.05c1.11,1.89,1.95,3.91,2.5,6.01l4.83.89c.47.09.82.5.82.98v8.27c0,.55-.45,1-1,1Z"/><path class="cls-3" d="M111.45,86.22c-.47,0-.89-.34-.98-.82l-.85-4.64h-6.61l-.85,4.64c-.1.54-.62.91-1.16.8-.54-.1-.9-.62-.8-1.16l1-5.46c.09-.47.5-.82.98-.82h8.27c.48,0,.9.34.98.82l1,5.46c.1.54-.26,1.06-.8,1.16-.06.01-.12.02-.18.02Z"/><path class="cls-3" d="M101.17,86.22h-6.91c-.55,0-1-.45-1-1s.45-1,1-1h6.91c.55,0,1,.45,1,1s-.45,1-1,1Z"/><path class="cls-3" d="M163.03,86.22c-.47,0-.89-.34-.98-.82l-.85-4.64h-6.61l-.85,4.64c-.1.54-.62.91-1.16.8-.54-.1-.9-.62-.8-1.16l1-5.46c.09-.47.5-.82.98-.82h8.27c.48,0,.9.34.98.82l1,5.46c.1.54-.26,1.06-.8,1.16-.06.01-.12.02-.18.02Z"/><path class="cls-3" d="M152.75,86.22h-6.91c-.55,0-1-.45-1-1s.45-1,1-1h6.91c.55,0,1,.45,1,1s-.45,1-1,1Z"/><path class="cls-3" d="M169.94,86.22c-.06,0-.12,0-.18-.02-.54-.1-.9-.62-.8-1.16l1-5.46c.09-.47.5-.82.98-.82h8.27c.48,0,.9.34.98.82l1,5.46c.1.54-.26,1.06-.8,1.16-.54.11-1.06-.26-1.16-.8l-.85-4.64h-6.61l-.85,4.64c-.09.48-.51.82-.98.82Z"/><path class="cls-3" d="M169.94,86.22h-6.91c-.55,0-1-.45-1-1s.45-1,1-1h6.91c.55,0,1,.45,1,1s-.45,1-1,1Z"/><path class="cls-3" d="M214.61,86.22c-.47,0-.89-.34-.98-.82l-.85-4.64h-6.61l-.85,4.64c-.1.54-.62.91-1.16.8-.54-.1-.9-.62-.8-1.16l1-5.46c.09-.47.5-.82.98-.82h8.27c.48,0,.9.34.98.82l1,5.46c.1.54-.26,1.06-.8,1.16-.06.01-.12.02-.18.02Z"/><path class="cls-3" d="M221.52,86.22h-6.91c-.55,0-1-.45-1-1s.45-1,1-1h6.91c.55,0,1,.45,1,1s-.45,1-1,1Z"/><path class="cls-1" d="M252.58,132.14c-.4,0-.78-.24-.93-.64-4.95-12.71-16.96-20.92-30.6-20.92-11.46,0-21.9,5.83-27.94,15.6-.17.27-.45.44-.77.47-.31.03-.63-.1-.83-.34-3.69-4.2-8.99-6.61-14.54-6.61-2.23,0-4.47.4-6.63,1.19-.42.15-.89,0-1.15-.36-4.49-6.24-11.75-9.96-19.42-9.96-6.1,0-11.91,2.3-16.37,6.48-.26.24-.62.33-.96.23-1.78-.52-3.59-.78-5.39-.78-6.18,0-12.03,3.01-15.66,8.05-.16.22-.41.37-.68.41-.27.04-.55-.04-.76-.21-3.03-2.47-6.85-3.82-10.76-3.82-1.35,0-2.75.18-4.16.53-.45.11-.92-.1-1.13-.51-2.95-5.71-8.77-9.25-15.17-9.25-9.42,0-17.08,7.66-17.08,17.08,0,.55-.45,1-1,1s-1-.45-1-1c0-10.52,8.56-19.08,19.08-19.08,6.9,0,13.18,3.68,16.58,9.65,1.31-.28,2.62-.42,3.89-.42,4.02,0,7.96,1.29,11.2,3.64,4.03-5.07,10.18-8.06,16.66-8.06,1.8,0,3.61.24,5.4.71,4.77-4.29,10.9-6.64,17.32-6.64,8.06,0,15.71,3.8,20.6,10.19,2.16-.71,4.38-1.07,6.61-1.07,5.69,0,11.14,2.29,15.15,6.33,6.49-9.7,17.21-15.45,28.93-15.45,14.47,0,27.21,8.71,32.46,22.2.2.51-.05,1.09-.57,1.29-.12.05-.24.07-.36.07Z"/></svg>